Sprint_08100001_forces_filt100Hz.mot
version=1
nRows=33
nColumns=19
inDegrees=yes
endheader
time	R_ground_force_vx	R_ground_force_vy	R_ground_force_vz	R_ground_force_px	R_ground_force_py	R_ground_force_pz	R_ground_torque_x	R_ground_torque_y	R_ground_torque_z	L_ground_force_vx	L_ground_force_vy	L_ground_force_vz	L_ground_force_px	L_ground_force_py	L_ground_force_pz	L_ground_torque_x	L_ground_torque_y	L_ground_torque_z	
1.463500	  0.000000	  0.000000	  0.000000	  0.281454	  0.000000	 -0.218054	  0.000000	  0.000000	  0.000000	  0.000000	  0.000000	  0.000000	  1.207821	  0.000000	 -0.393413	  0.000000	  0.000000	  0.000000
1.464000	  0.000000	  0.000000	  0.000000	  0.283831	  0.000000	 -0.217914	  0.000000	  0.000000	  0.000000	  0.000000	  0.000000	  0.000000	  1.204735	  0.000000	 -0.392829	  0.000000	  0.000000	  0.000000
1.464500	  0.000000	  0.000000	  0.000000	  0.286208	  0.000000	 -0.217773	  0.000000	  0.000000	  0.000000	  0.000000	  0.000000	  0.000000	  1.201650	  0.000000	 -0.392245	  0.000000	  0.000000	  0.000000
1.465000	  0.000000	  0.000000	  0.000000	  0.288585	  0.000000	 -0.217633	  0.000000	  0.000000	  0.000000	  0.000000	  0.000000	  0.000000	  1.198564	  0.000000	 -0.391661	  0.000000	  0.000000	  0.000000
1.465500	  0.000000	  0.000000	  0.000000	  0.291010	  0.000000	 -0.217407	  0.000000	  0.000000	  0.000000	  0.000000	  0.000000	  0.000000	  1.195419	  0.000000	 -0.390842	  0.000000	  0.000000	  0.000000
1.466000	  0.000000	  0.000000	  0.000000	  0.293435	  0.000000	 -0.217181	  0.000000	  0.000000	  0.000000	  0.000000	  0.000000	  0.000000	  1.192273	  0.000000	 -0.390024	  0.000000	  0.000000	  0.000000
1.466500	  0.000000	  0.000000	  0.000000	  0.295860	  0.000000	 -0.216955	  0.000000	  0.000000	  0.000000	  0.000000	  0.000000	  0.000000	  1.189128	  0.000000	 -0.389206	  0.000000	  0.000000	  0.000000
1.467000	  0.000000	  0.000000	  0.000000	  0.298285	  0.000000	 -0.216729	  0.000000	  0.000000	  0.000000	  0.000000	  0.000000	  0.000000	  1.185983	  0.000000	 -0.388388	  0.000000	  0.000000	  0.000000
1.467500	  0.000000	  0.000000	  0.000000	  0.300710	  0.000000	 -0.216503	  0.000000	  0.000000	  0.000000	  0.000000	  0.000000	  0.000000	  1.182837	  0.000000	 -0.387570	  0.000000	  0.000000	  0.000000
1.468000	  0.000000	  0.000000	  0.000000	  0.303135	  0.000000	 -0.216276	  0.000000	  0.000000	  0.000000	  0.000000	  0.000000	  0.000000	  1.179692	  0.000000	 -0.386752	  0.000000	  0.000000	  0.000000
1.468500	  0.000000	  0.000000	  0.000000	  0.305560	  0.000000	 -0.216050	  0.000000	  0.000000	  0.000000	  0.000000	  0.000000	  0.000000	  1.176547	  0.000000	 -0.385933	  0.000000	  0.000000	  0.000000
1.469000	  0.000000	  0.000000	  0.000000	  0.307985	  0.000000	 -0.215824	  0.000000	  0.000000	  0.000000	  0.000000	  0.000000	  0.000000	  1.173401	  0.000000	 -0.385115	  0.000000	  0.000000	  0.000000
1.469500	  0.000000	  0.000000	  0.000000	  0.310410	  0.000000	 -0.215598	  0.000000	  0.000000	  0.000000	  0.000000	  0.000000	  0.000000	  1.154843	 -0.000000	 -0.397888	  0.000000	  0.000000	  0.000000
1.470000	  0.000000	  0.000000	  0.000000	  0.312835	  0.000000	 -0.215372	  0.000000	  0.000000	  0.000000	  0.000000	  0.000000	  0.000000	  1.136285	 -0.000000	 -0.410661	  0.000000	  0.000000	  0.000000
1.470500	  0.000000	  0.000000	  0.000000	  0.315285	  0.000000	 -0.215203	  0.000000	  0.000000	  0.000000	  0.000000	  0.000000	  0.000000	  1.117727	 -0.000000	 -0.423435	  0.000000	  0.000000	  0.000000
1.471000	  0.000000	  0.000000	  0.000000	  0.317735	  0.000000	 -0.215033	  0.000000	  0.000000	  0.000000	-74.864476	 27.283402	-74.052379	  1.099169	 -0.000000	 -0.436208	  0.000000	-50.030038	  0.000000
1.471500	  0.000000	  0.000000	  0.000000	  0.320185	  0.000000	 -0.214864	  0.000000	  0.000000	  0.000000	-91.682421	 64.679655	-85.295941	  1.080611	  0.000000	 -0.448981	  0.000000	-55.803595	  0.000000
1.472000	  0.000000	  0.000000	  0.000000	  0.322635	  0.000000	 -0.214694	  0.000000	  0.000000	  0.000000	-109.283545	114.886617	-96.917176	  1.062053	  0.000000	 -0.461754	  0.000000	-61.057803	  0.000000
1.472500	  0.000000	  0.000000	  0.000000	  0.325085	  0.000000	 -0.214525	  0.000000	  0.000000	  0.000000	-127.478993	178.779380	-108.513746	  1.043495	  0.000000	 -0.474527	  0.000000	-65.578354	  0.000000
1.473000	  0.000000	  0.000000	  0.000000	  0.327535	  0.000000	 -0.214356	  0.000000	  0.000000	  0.000000	-146.151556	256.008159	-119.516943	  1.024937	  0.000000	 -0.487300	  0.000000	-69.176872	  0.000000
1.473500	  0.000000	  0.000000	  0.000000	  0.329985	  0.000000	 -0.214186	  0.000000	  0.000000	  0.000000	-165.290625	344.618640	-129.194888	  1.006379	  0.000000	 -0.500073	  0.000000	-71.700588	  0.000000
1.474000	  0.000000	  0.000000	  0.000000	  0.332435	  0.000000	 -0.214017	  0.000000	  0.000000	  0.000000	-185.022039	441.331745	-136.682625	  1.015634	  0.000000	 -0.493708	  0.000000	-73.035866	  0.000000
1.474500	  0.000000	  0.000000	  0.000000	  0.334885	  0.000000	 -0.213847	  0.000000	  0.000000	  0.000000	-205.627576	542.381808	-141.040901	  1.021931	  0.000000	 -0.487079	  0.000000	-73.102563	  0.000000
1.475000	  0.000000	  0.000000	  0.000000	  0.337335	  0.000000	 -0.213678	  0.000000	  0.000000	  0.000000	-227.543960	644.175664	-141.338511	  1.025708	  0.000000	 -0.480270	  0.000000	-71.841896	  0.000000
1.475500	  0.000000	  0.000000	  0.000000	  0.339792	  0.000000	 -0.213569	  0.000000	  0.000000	  0.000000	-251.332105	743.551127	-136.749681	  1.027368	  0.000000	 -0.473301	  0.000000	-69.204110	  0.000000
1.476000	  0.000000	  0.000000	  0.000000	  0.342248	  0.000000	 -0.213460	  0.000000	  0.000000	  0.000000	-277.608790	837.929847	-126.654211	  1.027206	  0.000000	 -0.466138	  0.000000	-65.138439	  0.000000
1.476500	  0.000000	  0.000000	  0.000000	  0.344705	  0.000000	 -0.213351	  0.000000	  0.000000	  0.000000	-306.943048	925.476311	-110.725831	  1.025363	  0.000000	 -0.458708	  0.000000	-59.589721	  0.000000
1.477000	  0.000000	  0.000000	  0.000000	  0.347162	  0.000000	 -0.213243	  0.000000	  0.000000	  0.000000	-339.729338	1005.180648	-88.990895	  1.021846	  0.000000	 -0.450932	  0.000000	-52.507974	  0.000000
1.477500	  0.000000	  0.000000	  0.000000	  0.349619	  0.000000	 -0.213134	  0.000000	  0.000000	  0.000000	-376.060532	1076.814970	-61.845445	  1.016591	  0.000000	 -0.442760	  0.000000	-43.869998	  0.000000
1.478000	  0.000000	  0.000000	  0.000000	  0.352075	  0.000000	 -0.213025	  0.000000	  0.000000	  0.000000	-415.636296	1140.754535	-30.023866	  1.009561	  0.000000	 -0.434205	  0.000000	-33.704409	  0.000000
1.478500	  0.000000	  0.000000	  0.000000	  0.354532	  0.000000	 -0.212916	  0.000000	  0.000000	  0.000000	-457.728219	1197.700405	  5.476840	  1.000846	  0.000000	 -0.425364	  0.000000	-22.106579	  0.000000
1.479000	  0.000000	  0.000000	  0.000000	  0.356989	  0.000000	 -0.212807	  0.000000	  0.000000	  0.000000	-501.209836	1248.380217	 43.501751	  0.990728	  0.000000	 -0.416413	  0.000000	 -9.236279	  0.000000
1.479500	  0.000000	  0.000000	  0.000000	  0.359446	  0.000000	 -0.212698	  0.000000	  0.000000	  0.000000	-544.641788	1293.295282	 82.851454	  0.979690	  0.000000	 -0.407581	  0.000000	  4.696274	  0.000000
